<?xml version="1.0" encoding="UTF-8"?><svg xmlns="http://www.w3.org/2000/svg" xmlns:xlink="http://www.w3.org/1999/xlink" height="115.0" preserveAspectRatio="xMidYMid meet" version="1.0" viewBox="-0.5 19.7 200.0 115.0" width="200.0" zoomAndPan="magnify"><g><g><g id="change1_1"><path d="M179.55,134.651H21.089c-2.494,0-4.517-2.021-4.517-4.517c0-41.718,37.57-75.662,83.748-75.662 c46.179,0,83.746,33.944,83.746,75.662C184.066,132.631,182.044,134.651,179.55,134.651z M25.774,125.617h149.091 c-2.614-34.64-35.05-62.115-74.545-62.115C60.823,63.502,28.388,90.978,25.774,125.617z" fill="#C69C6D"/></g><g id="change1_2"><path d="M194.964,134.651H179.55c-2.492,0-4.515-2.021-4.515-4.517c0-2.497,2.022-4.518,4.515-4.518h15.414 c2.495,0,4.515,2.021,4.515,4.518C199.479,132.631,197.459,134.651,194.964,134.651z" fill="#C69C6D"/></g><g id="change1_5"><path d="M21.089,134.651H3.993c-2.494,0-4.514-2.021-4.514-4.517c0-2.497,2.02-4.518,4.514-4.518h17.096 c2.495,0,4.517,2.021,4.517,4.518C25.606,132.631,23.583,134.651,21.089,134.651z" fill="#C69C6D"/></g><g id="change1_3"><path d="M179.55,134.651H21.089c-2.494,0-4.517-2.021-4.517-4.517c0-2.497,2.022-4.518,4.517-4.518H179.55 c2.494,0,4.517,2.021,4.517,4.518C184.066,132.631,182.044,134.651,179.55,134.651z" fill="#C69C6D"/></g></g><g id="change1_4"><path d="M101.832,63.507c-12.09,0-21.927-9.832-21.927-21.927c0-12.09,9.837-21.926,21.927-21.926 c12.09,0,21.927,9.835,21.927,21.926C123.759,53.675,113.922,63.507,101.832,63.507z M101.832,28.687 c-7.111,0-12.894,5.787-12.894,12.893c0,7.111,5.782,12.898,12.894,12.898s12.896-5.787,12.896-12.898 C114.728,34.474,108.943,28.687,101.832,28.687z" fill="#C69C6D"/></g><g id="change1_6"><path d="M39.77,116.871c-0.119,0-0.238-0.005-0.36-0.015c-2.487-0.199-4.344-2.375-4.146-4.862 c1.996-25.241,32.43-38.082,33.728-38.622c2.297-0.935,4.935,0.146,5.892,2.448c0.954,2.302-0.141,4.945-2.441,5.899 c-0.265,0.112-26.617,11.287-28.174,30.99C44.08,115.075,42.104,116.871,39.77,116.871z" fill="#C69C6D"/></g></g></svg>